<?xml version="1.0" standalone="no"?>
<!DOCTYPE svg PUBLIC "-//W3C//DTD SVG 20010904//EN"
 "http://www.w3.org/TR/2001/REC-SVG-20010904/DTD/svg10.dtd">
<svg version="1.0" xmlns="http://www.w3.org/2000/svg"
 width="936.000000pt" height="852.000000pt" viewBox="0 0 936.000000 852.000000"
 preserveAspectRatio="xMidYMid meet">

<g transform="translate(0.000000,852.000000) scale(0.100000,-0.100000)"
fill="#000000" stroke="none">
<path d="M4430 8163 c-503 -49 -897 -168 -1286 -388 -787 -445 -1343 -1203
-1528 -2083 -53 -249 -61 -337 -61 -657 0 -265 3 -318 24 -455 167 -1099 868
-2011 1876 -2440 144 -62 233 -90 279 -90 59 0 107 29 134 81 l24 44 -6 305
c-4 167 -8 305 -9 306 -1 1 -36 -5 -77 -12 -330 -60 -623 1 -805 167 -77 71
-119 132 -169 249 -88 202 -192 337 -328 427 -173 114 -169 189 12 187 183 -2
344 -109 486 -325 116 -176 238 -274 394 -314 50 -13 93 -16 185 -13 104 4
134 9 219 39 l100 34 23 95 c27 113 77 219 133 283 l41 46 -33 5 c-283 43
-418 75 -563 133 -442 175 -695 501 -786 1013 -30 168 -37 473 -15 610 34 198
114 386 232 543 l66 88 -21 77 c-56 208 -48 421 26 665 31 104 35 106 164 90
169 -22 419 -127 634 -267 l84 -55 112 25 c288 65 659 91 935 65 129 -12 350
-49 455 -76 l57 -15 98 62 c231 146 455 239 624 261 127 16 134 12 164 -81 76
-241 84 -473 24 -679 l-21 -72 42 -49 c107 -128 194 -301 237 -468 60 -240 48
-607 -31 -900 -147 -544 -550 -859 -1220 -954 -139 -20 -132 -12 -80 -76 57
-70 88 -130 122 -241 l27 -88 6 -562 c5 -548 6 -562 26 -590 28 -38 80 -63
132 -63 74 0 368 121 569 233 259 146 479 313 693 527 440 440 725 966 854
1577 38 181 57 346 63 564 22 753 -216 1466 -685 2055 -106 134 -344 374 -472
475 -493 393 -1069 626 -1680 679 -106 9 -419 11 -500 3z"/>
<path d="M2905 1387 c-164 -42 -261 -143 -311 -324 -24 -87 -30 -328 -10 -423
32 -154 111 -267 222 -319 149 -70 396 -66 543 9 l41 21 -2 282 -3 282 -185 0
-185 0 -3 -102 -3 -103 76 0 75 0 0 -104 c0 -121 4 -116 -103 -116 -152 1
-222 74 -248 256 -18 131 9 283 63 348 45 55 99 79 193 84 44 2 107 -1 140 -8
105 -21 97 -26 122 75 25 104 25 105 -57 130 -73 22 -297 29 -365 12z"/>
<path d="M4415 1348 c-3 -7 -4 -247 -3 -533 l3 -520 115 0 115 0 3 228 2 227
150 0 150 0 2 -227 3 -228 112 -3 c109 -3 112 -2 115 20 2 13 2 254 0 536 l-2
513 -113 -3 -112 -3 -3 -197 -2 -198 -150 0 -150 0 -2 198 -3 197 -113 3 c-84
2 -114 -1 -117 -10z"/>
<path d="M6055 1348 c-3 -7 -4 -247 -3 -533 l3 -520 82 -3 c80 -3 83 -2 89 22
l6 24 66 -31 c61 -29 76 -32 167 -32 92 0 104 2 148 28 97 57 132 155 131 367
0 127 -3 152 -23 203 -12 31 -34 71 -48 88 -72 85 -227 103 -370 43 -10 -4
-13 31 -13 159 0 91 -3 172 -6 181 -5 13 -25 16 -115 16 -79 0 -111 -4 -114
-12z m420 -522 c31 -31 45 -85 45 -171 -1 -96 -14 -145 -46 -174 -24 -20 -35
-22 -83 -18 -31 2 -68 9 -84 15 l-27 12 2 166 3 167 35 13 c19 7 57 13 83 13
38 1 53 -4 72 -23z"/>
<path d="M3580 1329 c-14 -6 -37 -22 -52 -36 -77 -73 -20 -213 85 -213 115 0
174 122 101 209 -14 17 -42 35 -62 41 -43 12 -40 12 -72 -1z"/>
<path d="M3928 1123 l-3 -108 -57 -15 -58 -14 0 -78 0 -77 58 -3 57 -3 5 -205
c4 -168 8 -211 22 -236 50 -92 177 -133 318 -103 l50 11 0 83 0 83 -65 4
c-100 6 -100 7 -100 201 l0 162 80 5 80 5 0 90 0 90 -82 3 -83 3 0 104 0 105
-110 0 -109 0 -3 -107z"/>
<path d="M3505 1007 c-3 -6 -4 -170 -3 -362 l3 -350 110 0 110 0 3 363 2 362
-110 0 c-80 0 -112 -4 -115 -13z"/>
<path d="M5287 1013 c-4 -3 -7 -126 -7 -273 0 -301 8 -350 64 -406 75 -75 268
-85 393 -21 41 22 50 21 56 -3 5 -18 14 -20 81 -20 l76 0 0 365 0 366 -112 -3
-113 -3 -5 -264 -5 -264 -35 -13 c-54 -19 -114 -17 -141 5 -24 19 -24 20 -27
280 l-3 261 -108 0 c-59 0 -111 -3 -114 -7z"/>
</g>
</svg>
